<?xml version="1.0" encoding="iso-8859-1"?>
<!-- Generator: Adobe Illustrator 19.0.0, SVG Export Plug-In . SVG Version: 6.00 Build 0)  -->
<svg version="1.1" id="Capa_1" xmlns="http://www.w3.org/2000/svg" xmlns:xlink="http://www.w3.org/1999/xlink" x="0px" y="0px"
	 viewBox="0 0 402.28 402.28" style="enable-background:new 0 0 402.28 402.28;" xml:space="preserve">
<g>
	<g>
		<path d="M394.099,216.383c-2.568-16.995-15.908-30.335-32.903-32.903l-0.16-0.08v-7.6c0-8.439-6.841-15.28-15.28-15.28h-13.68
			v-29.6C332.075,58.615,273.461,0,201.155,0S70.235,58.615,70.235,130.92v29.68h-13.6c-8.439,0-15.28,6.841-15.28,15.28v7.52
			c-21.429,3.085-36.299,22.957-33.214,44.386c2.478,17.213,16.001,30.736,33.214,33.214v7.52c0,8.439,6.841,15.28,15.28,15.28
			h39.36c8.345-0.131,15.041-6.934,15.04-15.28v-92.64c0-8.439-6.841-15.28-15.28-15.28h-13.44v-29.68
			C82.315,65.242,135.558,12,201.235,12c65.678,0,118.92,53.242,118.92,118.92v29.68h-13.76c-8.439,0-15.28,6.841-15.28,15.28v92.64
			c0,8.439,6.841,15.28,15.28,15.28h13.44c-1.68,34.16-14.56,84.08-74.24,87.28v-3.2c0-8.439-6.841-15.28-15.28-15.28h-40.48
			c-8.439,0-15.28,6.841-15.28,15.28V387c0,8.439,6.841,15.28,15.28,15.28h40.56c8.439,0,15.28-6.841,15.28-15.28v-3.84
			c52.4-2.56,83.44-38.32,86.24-99.36h14c8.439,0,15.28-6.841,15.28-15.28V261C382.602,257.765,397.333,237.79,394.099,216.383z
			 M41.355,249.32c-12.627-2.868-21.531-14.173-21.36-27.12c0.018-12.798,8.88-23.884,21.36-26.72V249.32z M95.995,172.6
			c1.811,0,3.28,1.469,3.28,3.28v92.64c0,1.811-1.469,3.28-3.28,3.28h-39.36c-1.811,0-3.28-1.469-3.28-3.28v-92.64
			c0-1.812,1.469-3.28,3.28-3.28H95.995z M233.675,387c0,1.811-1.469,3.28-3.28,3.28h-40.56c-1.811,0-3.28-1.469-3.28-3.28v-19.12
			c0-1.812,1.469-3.28,3.28-3.28h40.56c1.811,0,3.28,1.469,3.28,3.28V387z M345.755,271.8h-39.36
			c-1.811,0.044-3.315-1.388-3.359-3.199c-0.001-0.027-0.001-0.054-0.001-0.081v-92.64c0-1.812,1.469-3.28,3.28-3.28h39.36
			c1.812,0,3.28,1.469,3.28,3.28v92.64h0.08C349.035,270.331,347.567,271.8,345.755,271.8z M381.872,228.083
			c-2.293,10.412-10.425,18.544-20.837,20.837v-53.44C375.792,198.729,385.121,213.326,381.872,228.083z"/>
	</g>
</g>
<g>
</g>
<g>
</g>
<g>
</g>
<g>
</g>
<g>
</g>
<g>
</g>
<g>
</g>
<g>
</g>
<g>
</g>
<g>
</g>
<g>
</g>
<g>
</g>
<g>
</g>
<g>
</g>
<g>
</g>
</svg>
